<svg data-v-423bf9ae="" xmlns="http://www.w3.org/2000/svg" viewBox="0 0 455 90" class="iconLeft"><!----><defs data-v-423bf9ae=""><linearGradient data-v-423bf9ae="" gradientTransform="rotate(25)" id="08cdc84b-6d3d-4716-afcd-719fe6ff795e" x1="0%" y1="0%" x2="100%" y2="0%"><stop data-v-423bf9ae="" offset="0%" style="stop-color: rgb(121, 35, 0); stop-opacity: 1;"></stop><stop data-v-423bf9ae="" offset="100%" style="stop-color: rgb(243, 112, 0); stop-opacity: 1;"></stop></linearGradient></defs><!----><g data-v-423bf9ae="" id="baf8ea72-192c-4cd4-8bdf-bb1856b72e59" fill="#ffffff" transform="matrix(5.747126579284668,0,0,5.747126579284668,107.81610107421875,15)"><path d="M7.24 7.60C7.24 5.94 6.19 5.08 3.81 5.08C2.84 5.08 2.42 4.80 2.42 4.28C2.42 3.91 2.91 3.36 4.13 3.36C4.72 3.36 5.24 3.40 5.77 3.50L6.41 4.40L7.01 4.40L7.01 2.13C5.99 1.83 5.17 1.68 4.13 1.68C1.61 1.68 0.38 3.15 0.38 4.52C0.38 6.19 1.43 7.04 3.81 7.04C4.77 7.04 5.19 7.32 5.19 7.84C5.19 8.22 4.70 8.76 3.49 8.76C2.45 8.76 1.62 8.61 0.60 8.32L0.60 10.00C1.62 10.29 2.45 10.44 3.49 10.44C6.01 10.44 7.24 8.97 7.24 7.60ZM19.70 10.26L19.70 9.66L18.72 8.96L18.72 6.06C18.72 4.52 17.51 3.54 15.74 3.54C14.91 3.54 14.21 3.84 13.79 4.23C13.29 3.82 12.59 3.54 11.63 3.54C10.61 3.54 9.52 3.71 8.51 3.99L8.27 4.06L8.64 5.36L8.64 10.26L10.51 10.26L10.51 5.26C10.82 5.18 11.23 5.12 11.63 5.12C12.32 5.12 12.75 5.49 12.75 6.06L12.75 10.26L14.62 10.26L14.62 6.06C14.62 5.49 15.05 5.12 15.74 5.12C16.42 5.12 16.86 5.49 16.86 6.06L16.86 10.26ZM22.65 1.40C22.65 0.83 22.19 0.36 21.62 0.36C21.06 0.36 20.59 0.83 20.59 1.40C20.59 1.96 21.06 2.42 21.62 2.42C22.19 2.42 22.65 1.96 22.65 1.40ZM23.53 10.26L23.53 9.66L22.55 8.96L22.55 3.72L20.69 3.72L20.69 10.26ZM29.18 10.26L29.18 8.68C28.85 8.81 28.49 8.86 28.06 8.86C27.37 8.86 26.94 8.50 26.94 7.92L26.94 5.32L29.18 5.32L29.18 3.72L26.94 3.72L26.94 1.72L25.07 2.00L25.07 3.72L23.67 3.72L23.67 5.32L25.07 5.32L25.07 7.92C25.07 9.46 26.28 10.44 28.06 10.44C28.43 10.44 28.85 10.37 29.18 10.26ZM37.62 10.26L37.62 9.66L36.64 8.96L36.64 6.06C36.64 4.52 35.43 3.54 33.66 3.54C33.29 3.54 32.87 3.63 32.54 3.72L32.54 0L30.67 0L30.67 10.26L32.54 10.26L32.54 5.26C32.86 5.18 33.25 5.12 33.66 5.12C34.34 5.12 34.78 5.49 34.78 6.06L34.78 10.26ZM44.39 10.26L44.39 7.73L43.79 7.73L43.11 8.68L40.57 8.68L40.57 1.86L38.61 1.86L38.61 10.26ZM47.47 1.40C47.47 0.83 47.01 0.36 46.44 0.36C45.88 0.36 45.42 0.83 45.42 1.40C45.42 1.96 45.88 2.42 46.44 2.42C47.01 2.42 47.47 1.96 47.47 1.40ZM48.36 10.26L48.36 9.66L47.38 8.96L47.38 3.72L45.51 3.72L45.51 10.26ZM54.18 8.20C54.18 6.78 53.21 6.10 51.52 6.10C50.97 6.10 50.75 5.91 50.75 5.64C50.75 5.38 50.99 5.12 51.80 5.12C52.12 5.12 52.46 5.15 52.82 5.21L53.48 6.13L54.10 6.13L54.10 3.89C53.34 3.68 52.64 3.54 51.80 3.54C49.87 3.54 48.86 4.66 48.86 5.78C48.86 7.21 49.84 7.88 51.52 7.88C52.08 7.88 52.29 8.09 52.29 8.34C52.29 8.61 52.05 8.86 51.24 8.86C50.58 8.86 49.77 8.74 48.96 8.51L48.96 10.09C49.71 10.30 50.41 10.44 51.24 10.44C53.19 10.44 54.18 9.32 54.18 8.20ZM60.26 10.26L60.26 8.68C59.93 8.81 59.57 8.86 59.14 8.86C58.45 8.86 58.02 8.50 58.02 7.92L58.02 5.32L60.26 5.32L60.26 3.72L58.02 3.72L58.02 1.72L56.15 2.00L56.15 3.72L54.75 3.72L54.75 5.32L56.15 5.32L56.15 7.92C56.15 9.46 57.36 10.44 59.14 10.44C59.51 10.44 59.93 10.37 60.26 10.26Z"></path></g><!----><g data-v-423bf9ae="" id="34e51c04-8f02-4f9b-a8e1-5b31b611807c" transform="matrix(2.8125,0,0,2.8125,0,0)" stroke="none" fill="#ffffff"><path d="M0 16l16 16 16-16L16 0 0 16zm16 13.172L2.828 16 16 2.828 29.172 16 16 29.172z"></path><path d="M14.751 9.991v4.76h-2.262v-4.76H9.991v12.018h2.498v-4.76h2.262v4.76h2.498v-4.76h2.262v4.76h2.498V9.991h-2.498v4.76h-2.262v-4.76z"></path></g><!----></svg>